<?xml version="1.0" standalone="no"?>
<!DOCTYPE svg PUBLIC "-//W3C//DTD SVG 20010904//EN"
 "http://www.w3.org/TR/2001/REC-SVG-20010904/DTD/svg10.dtd">
<svg version="1.0" xmlns="http://www.w3.org/2000/svg"
 width="728.000000pt" height="728.000000pt" viewBox="0 0 728.000000 728.000000"
 preserveAspectRatio="xMidYMid meet">
<metadata>
Created by potrace 1.11, written by Peter Selinger 2001-2013
</metadata>
<g transform="translate(0.000000,728.000000) scale(0.100000,-0.100000)"
fill="#000000" stroke="none">
<path d="M3399 7276 c-2 -2 -42 -7 -89 -10 -47 -4 -96 -8 -110 -10 -46 -8
-125 -19 -150 -22 -21 -3 -70 -12 -105 -19 -5 -2 -26 -5 -46 -9 -20 -3 -96
-21 -170 -40 -363 -94 -676 -228 -1024 -439 -237 -144 -578 -430 -775 -653
-39 -43 -131 -153 -142 -169 -4 -5 -20 -26 -36 -45 -119 -145 -297 -437 -400
-652 -110 -230 -226 -566 -266 -768 -2 -14 -11 -56 -20 -95 -8 -38 -17 -90
-20 -115 -3 -25 -8 -56 -11 -69 -2 -13 -7 -52 -11 -85 -3 -34 -9 -97 -14 -141
-8 -84 -5 -585 4 -645 3 -19 8 -57 11 -85 8 -74 34 -240 39 -256 3 -8 8 -30
11 -49 17 -109 74 -314 137 -490 115 -323 269 -614 477 -905 19 -27 38 -52 41
-55 3 -3 13 -16 21 -30 31 -48 224 -265 320 -361 98 -97 260 -240 334 -294 22
-17 42 -33 45 -36 17 -22 281 -194 401 -262 282 -160 670 -312 954 -373 189
-40 214 -45 335 -60 235 -31 612 -42 801 -23 160 15 204 20 219 24 8 3 35 7
60 10 127 16 408 84 573 140 214 72 454 178 626 277 46 26 86 48 88 48 2 0 16
8 31 19 15 10 70 47 122 81 677 449 1187 1119 1438 1890 51 157 87 286 98 355
3 21 10 49 15 62 5 13 8 27 7 31 -1 4 1 21 5 37 4 17 9 46 11 65 3 19 7 52 10
72 26 169 31 245 31 498 0 221 -7 393 -19 457 -2 10 -7 41 -10 68 -17 125 -42
258 -73 380 -2 11 -8 36 -13 55 -4 19 -19 71 -33 115 -161 515 -406 954 -754
1354 -136 156 -350 351 -578 529 -19 15 -190 129 -235 158 -156 97 -362 202
-545 277 -103 42 -334 122 -379 132 -12 2 -55 13 -96 24 -41 11 -86 22 -100
25 -14 2 -56 11 -95 20 -64 13 -129 24 -195 31 -14 1 -47 6 -75 10 -27 4 -63
9 -80 11 -39 5 -591 15 -596 10z m1216 -2171 c-1 -154 -15 -137 113 -137 40 1
76 3 81 6 5 3 9 59 9 123 0 65 1 124 1 131 1 9 38 12 151 12 l150 0 0 -135 c0
-101 3 -135 13 -135 6 -1 114 -1 240 -2 l227 -1 1 -106 c3 -228 5 -213 -64
-395 l-63 -169 -407 0 -407 0 0 -62 0 -62 153 -101 c83 -56 161 -108 172 -116
11 -8 106 -72 210 -142 251 -168 287 -196 329 -257 43 -64 63 -119 72 -200 9
-84 9 -730 0 -789 -10 -64 -47 -128 -105 -180 -66 -59 -129 -78 -264 -78
l-106 0 -3 -137 -3 -137 -140 2 c-77 0 -146 1 -152 1 -10 1 -13 28 -12 104 0
56 0 117 0 135 l-1 32 -100 0 -100 0 0 -135 c0 -74 -3 -135 -7 -136 -45 -4
-268 -2 -282 2 -15 6 -17 22 -16 138 l1 131 -240 2 -241 3 -1 315 c0 173 2
321 4 328 3 9 107 12 473 12 l469 0 1 38 c2 90 0 132 -6 142 -3 6 -174 121
-378 257 -383 254 -450 306 -495 382 -57 97 -61 139 -62 550 l0 377 30 59 c33
68 69 111 123 144 64 39 115 49 275 50 l52 1 0 135 0 135 153 0 153 0 -1 -135z
m-1165 -177 c1 -24 2 -99 3 -168 1 -136 2 -131 -101 -391 l-26 -67 -403 1
c-222 0 -406 -3 -409 -6 -5 -4 -9 -1245 -5 -1312 1 -7 161 -10 474 -10 l472 0
-1 -325 c-1 -179 -2 -328 -3 -332 0 -3 -344 -6 -763 -5 l-763 2 -60 29 c-95
47 -161 128 -180 221 -4 17 -7 505 -7 1085 l0 1055 22 60 c30 78 105 154 180
183 54 21 68 21 813 21 l757 1 0 -42z"/>
</g>
</svg>
