<svg xmlns="http://www.w3.org/2000/svg" viewBox="0 0 752.2 182"><defs><style>.cls-1{fill:#ffffff;}.cls-2{fill:#ffffff;}</style></defs><title>cryptosoft_logo_hrt_white</title><g id="Vrstva_2" data-name="Vrstva 2"><g id="Vrstva_1-2" data-name="Vrstva 1"><path class="cls-1" d="M265.38,57.87v8.26l-3.23,8.45H241.73v33.14h23.65v16.62H229.29a8,8,0,0,1-8.36-8.26v-50a8,8,0,0,1,8.36-8.26Z"/><path class="cls-1" d="M312.95,57.87a7.93,7.93,0,0,1,8.26,8.26V92.25a8.18,8.18,0,0,1-5.51,7.5l6.55,16.33v8.26H301.93l-5.6-20.7h-4.18v20.7h-20.8V57.87Zm-20.8,16.72V87h8.26V74.59Z"/><path class="cls-1" d="M326.36,66.13V57.87h20.8l5,25.83h1.52l5.13-25.83h20.7v8.26L363.3,106.21v18.14H342.6V106.21Z"/><path class="cls-1" d="M405.9,103.65v20.7H385.1V57.87h41.5A8,8,0,0,1,435,66.13V95.29a8,8,0,0,1-8.36,8.36Zm0-16.62h8.26V74.59H405.9Z"/><path class="cls-1" d="M440.06,74.59V57.87H486.6v8.26l-3.32,8.45h-10v49.76H452.5V74.59Z"/><path class="cls-1" d="M500.46,124.35a8,8,0,0,1-8.36-8.26v-50a8,8,0,0,1,8.36-8.26h33.15A8,8,0,0,1,542,66.13v50a8,8,0,0,1-8.36,8.26Zm12.44-49.76v33.14h8.26V74.59Z"/><path class="cls-2" d="M549.84,80.09v-14a8,8,0,0,1,8.36-8.26h36.09V66l-3.23,8.55H570.64v3l18,12.06c4.56,3,5.6,6,5.6,11.3v15.1a7.93,7.93,0,0,1-8.26,8.26H549.84V107.73h23.65v-4.37l-18-12C550.89,88.26,549.84,85.41,549.84,80.09Z"/><path class="cls-2" d="M608.61,124.35a8,8,0,0,1-8.36-8.26v-50a8,8,0,0,1,8.36-8.26h33.15a8,8,0,0,1,8.36,8.26v50a8,8,0,0,1-8.36,8.26Zm12.44-49.76v33.14h8.26V74.59Z"/><path class="cls-2" d="M677.87,124.35h-20.8V57.87h44.44v8.26l-3.23,8.45H677.87V85.32h20.42v16.62H677.87Z"/><path class="cls-2" d="M705.66,74.59V57.87H752.2v8.26l-3.32,8.45h-10v49.76H718.1V74.59Z"/><path class="cls-1" d="M91,0a91,91,0,1,0,91,91A91,91,0,0,0,91,0ZM86.37,66.13l-3.23,8.45H62.72v33.14H86.37v16.62H50.28a8,8,0,0,1-8.36-8.26v-50a8,8,0,0,1,8.36-8.26H86.37Zm53.71-.1-3.23,8.55H116.43v3l18,12.06c4.56,3,5.6,6,5.6,11.3v15.1a7.93,7.93,0,0,1-8.26,8.26H128v6.75h-7.68v-6.75h-5v6.75h-7.68v-6.75h-12V107.73h23.65v-4.37l-18-12c-4.56-3.13-5.6-6-5.6-11.3v-14A8,8,0,0,1,104,57.87h3.68V51.12h7.68v6.75h5V51.12H128v6.75h12Z"/></g></g></svg>