<svg xmlns="http://www.w3.org/2000/svg" viewBox="0 0 150 150"><defs><style>.cls-1{fill:none;}.cls-2{fill:#fff;}</style></defs><title>icon_moneymachine_white</title><g id="Vrstva_2" data-name="Vrstva 2"><g id="Vrstva_1-2" data-name="Vrstva 1"><circle class="cls-1" cx="75" cy="75" r="75"/><rect class="cls-2" x="115" y="62" width="10" height="57.5"/><rect class="cls-2" x="100" y="79.5" width="10" height="40"/><rect class="cls-2" x="85" y="67" width="10" height="52.5"/><rect class="cls-2" x="70" y="82" width="10" height="37.5"/><rect class="cls-2" x="55" y="89.5" width="10" height="30"/><rect class="cls-2" x="40" y="84.5" width="10" height="35"/><rect class="cls-2" x="25" y="94.5" width="10" height="25"/><polygon class="cls-2" points="115.25 32.25 100 47.49 90 37.49 65 62.49 52.5 49.99 26.5 76 33.5 83 52.5 64.01 65 76.51 90 51.51 100 61.51 122.25 39.25 115.25 32.25"/><polygon class="cls-2" points="125 29.5 102.5 29.5 125 52 125 29.5"/></g></g></svg>